# xmcd
#
# Track frame offsets:
#	150
#	27962
#	56598
#	75001
#	93362
#	117388
#	138293
#	164066
#	187379
#	222815
#	239818
#	277921
#
# Disc length: 4034 seconds
#
# Revision: 0
# Processed by: cddbd v1.5.1PL0 Copyright (c) Steve Scherf et al.
# Submitted via: audiograbber 1.82.01
#
DISCID=a90fc00c
DTITLE=Ry Cooder - Cotati Cabaret
DYEAR=1987
DGENRE=
TTITLE0=Showtime
TTITLE1=Little Sister
TTITLE2=Smack Dab in the Middle
TTITLE3=I Wanna Ball
TTITLE4=Go Home Girl
TTITLE5=Ay Te Dejo En San Antonio
TTITLE6=He'll Have To Go
TTITLE7=Jesus on the Mainline
TTITLE8=Dark End of the Street
TTITLE9=When He Comes
TTITLE10=Teeny Weeny Bit
TTITLE11=One Meatball
EXTD=23.03.1987\n\nMusicians - Ry Cooder-Guitar and Vocals,  Flaco Jiminez-Accord
EXTD=ian,  Van Dyke Parks-Keyboard,  Jorge Calderon-Bass,  Jim Keltner-Drums,  
EXTD=Miguel Cruz-Percussion, Steve Douglas-Saxophone,  George Bohannon-Trombone
EXTD=Singers - Bobby King-Baritone, Terry Evans-Tenor,Arnold McCullar-Tenor
EXTD=,Willie King Jr-Bass 
EXTT0=
EXTT1=
EXTT2=
EXTT3=
EXTT4=
EXTT5=
EXTT6=
EXTT7=
EXTT8=
EXTT9=
EXTT10=
EXTT11=
PLAYORDER=
